<?xml version="1.0" encoding="utf-8"?>
<!-- Generator: Adobe Illustrator 27.5.0, SVG Export Plug-In . SVG Version: 6.00 Build 0)  -->
<svg version="1.1" xmlns="http://www.w3.org/2000/svg" xmlns:xlink="http://www.w3.org/1999/xlink" x="0px" y="0px"
	 viewBox="33 -424 129 375" style="enable-background:new 0 -500 500 500;" xml:space="preserve">
<g id="OBJECTS">
	<g>
		<g>
			<g>
				<path style="fill:#6F8EB3;" d="M161.79-55.17c-0.08,1.15-0.34,2.44-0.83,3.89c-8.53,1.53-27.87,1.2-36.56-0.03
					c-1.65-0.23-2.9-1.59-2.74-3.25c0.07-0.7,0.13-1.36,0.21-1.99c0.71-6.38,1.6-9.8,1.97-16.67c8.37-1.15,16.08,0.63,22.88,0.2
					C147.55-65.25,162.45-65.63,161.79-55.17z"/>
				<path style="fill:#AFCFED;" d="M161.79-55.17c-0.08,1.15-0.34,2.44-0.83,3.89c-8.53,1.53-27.87,1.2-36.56-0.03
					c-1.65-0.23-2.9-1.59-2.74-3.25c0.07-0.7,0.13-1.36,0.21-1.99C134.99-53.96,148.51-53.5,161.79-55.17z"/>
			</g>
			<g>
				<path style="fill:#6F8EB3;" d="M49.87-55.17c0.08,1.15,0.34,2.44,0.83,3.89c8.53,1.53,27.87,1.2,36.56-0.03
					c1.65-0.23,2.9-1.59,2.74-3.25c-0.07-0.7-0.13-1.36-0.21-1.99c-0.71-6.38-1.6-9.8-1.97-16.67c-8.37-1.15-16.08,0.63-22.88,0.2
					C64.1-65.25,49.2-65.63,49.87-55.17z"/>
				<path style="fill:#AFCFED;" d="M49.87-55.17c0.08,1.15,0.34,2.44,0.83,3.89c8.53,1.53,27.87,1.2,36.56-0.03
					c1.65-0.23,2.9-1.59,2.74-3.25c-0.07-0.7-0.13-1.36-0.21-1.99C76.67-53.96,63.14-53.5,49.87-55.17z"/>
			</g>
			<g>
				<path style="fill:#FCA492;" d="M112.88-336.42c-5.02,6.76-10.86,10.6-18.6,13.28c-10.08-0.91-16.85-7.51-21.49-13.83
					c2.79-0.97,5.35-2.28,7.41-4.12c0.08-3.07,0.14-6.26,0.17-9.46c0.02-0.89,0.03-1.78,0.04-2.67v-0.06
					c0.14,0.02,0.26,0.03,0.4,0.04c7.29,0.84,14.63,1.1,21.92,0.65c-0.46,4.38-0.36,7.87,0.36,11.58c0.25,0.24,0.51,0.49,0.78,0.71
					C106.28-338.2,109.3-336.75,112.88-336.42z"/>
				<path style="fill:#4F2739;" d="M103.85-340.3c-3.95,0.38-7.99-0.1-11.7-1.46c-4.71-1.73-8.86-4.84-11.8-8.79
					c0.02-0.89,0.03-1.78,0.04-2.67c0.14,0,0.27-0.01,0.4-0.02c7.29,0.84,14.63,1.1,21.92,0.65c-0.46,4.38-0.36,7.87,0.36,11.58
					C103.33-340.77,103.59-340.53,103.85-340.3z"/>
			</g>
			<path style="fill:#6F8EB3;" d="M138.49-305.44c5.76,8.76,9.95,18.49,12.28,28.02c-0.39,4.72-1.11,9.41-1.99,13.91
				c0.18,1.36,0.43,3.36,0.61,4.72c0.68,1.62,0.82,3.42,0.39,5.15c-1.04,4.14-2.26,8.22-3.6,12.19c-1.29,3.82-4.29,6.93-8.19,8.36
				c-7.01,2.57-15.85,3.93-23.32,3.13c-1.07-18.75-3.16-41.76-5.76-60.37C118.7-295.34,128.47-300.34,138.49-305.44z"/>
			<g>
				<path style="fill:#ED8B82;" d="M112.07-373.56c0.83-1.56,1.9-3.29,3.63-3.56c1.4-0.22,2.81,0.69,3.55,1.92
					c0.74,1.23,0.93,2.72,0.96,4.16c0.04,2.27-0.32,4.63-1.58,6.51c-1.26,1.88-3.55,3.16-5.75,2.7"/>
				<path style="fill:#FCA492;" d="M67.21-367.96c-7.23-7.15-11.08-17.47-9.75-27.37c1.33-9.9,7.99-19.09,17.38-23.3
					s21.24-3.09,29.32,3.15c5.97,4.61,9.66,11.61,11.02,18.87c1.36,7.26,0.53,14.77-1.4,22.06c1.19,5.34,1.67,11.08-0.53,16.11
					c-1.58,3.6-4.44,6.56-7.69,8.9c-2.18,1.57-4.54,2.88-7.19,4.14c-2.82,1.34-6.1,1.47-9.05,0.41c-3.86-1.38-7.51-3.35-10.9-5.61
					c-3.1-2.06-6.05-4.42-8.18-7.42C68.12-361.01,66.89-364.73,67.21-367.96z"/>
				<g>
					<path style="fill:#FED885;" d="M64.62-360.12c-4.27-11.75-8.1-23.09-9.03-30.67c-1.29-3.55-1.9-7.63-1.42-11.6
						c2.19-3.94,4.73-7,7.96-9.22c-0.62-0.11-1.24-0.21-1.86-0.32c4.09-4.87,9.8-8.44,16.25-7.73c-0.33-1-1.23-1.93-2.09-2.15
						c10.13-3.93,22.82-1.52,32.84,2.63c1.16,0.48,2.32,1.03,3.23,1.84s1.57,1.94,1.51,3.11c-0.11-3.06-2.6-5.92-5.82-6.7
						c5.08,0.62,9.25,4.53,10.65,9.06c1.4,4.52,0.33,10.18-2.08,14.34c-5.69,0.74-13.63,2.68-21.55,4.16
						c-8.6-0.94-16.84-1.4-25.25,0.17c-1.1,3.71-1.26,13.34,0.96,17.39C67.45-370.1,65.53-363.63,64.62-360.12z"/>
					<g>
						<path style="fill:none;stroke:#E6AB5A;stroke-linecap:round;stroke-linejoin:round;stroke-miterlimit:10;" d="M94.28-393.81
							c4-2.07,6.68-6.31,6.76-10.68s-2.45-8.69-6.37-10.89"/>
						<path style="fill:none;stroke:#E6AB5A;stroke-linecap:round;stroke-linejoin:round;stroke-miterlimit:10;" d="M103.97-395.64
							c2.49-0.97,4.78-2.59,6.07-4.85c1.29-2.26,1.4-5.23-0.1-7.37"/>
						<path style="fill:none;stroke:#E6AB5A;stroke-linecap:round;stroke-linejoin:round;stroke-miterlimit:10;" d="M85.68-394.03
							c1.13-2.45,1.2-5.34,0.19-7.83c-1.01-2.5-3.08-4.58-5.63-5.65"/>
						<path style="fill:none;stroke:#E6AB5A;stroke-linecap:round;stroke-linejoin:round;stroke-miterlimit:10;" d="M79.55-393.94
							c0.5-2.25-0.46-4.73-2.36-6.11"/>
						<path style="fill:none;stroke:#E6AB5A;stroke-linecap:round;stroke-linejoin:round;stroke-miterlimit:10;" d="M74.2-394.06
							c-1.3-3.35-4.95-5.72-8.66-5.62"/>
					</g>
				</g>
				<path style="fill:#FCA492;" d="M68.64-370.74c-1.11-1.34-2.26-2.71-3.8-3.58c-1.54-0.87-3.57-1.15-5.08-0.23
					c-1.27,0.77-1.94,2.24-2.02,3.68c-0.08,1.44,0.34,2.86,0.86,4.22c0.62,1.63,1.4,3.22,2.57,4.54c1.17,1.31,2.78,2.33,4.56,2.54
					c1.78,0.21,3.73-0.49,4.7-1.94"/>
				<g>
					<path style="fill:#FED885;" d="M75.02-377.86c0.51-1.92,1.62-3.71,3.24-4.93c1.62-1.22,3.77-1.81,5.79-1.45
						c2.02,0.36,3.85,1.74,4.55,3.6C84.07-382.26,78.61-381.07,75.02-377.86z"/>
					<path style="fill:#FED885;" d="M113.99-382.1c-0.59-2.22-1.38-3.59-3.26-4.4c-1.88-0.81-4.37-0.55-6.24,0.27
						c-1.87,0.82-4.15,2.57-4.37,4.54C104.11-384.31,110.78-385.19,113.99-382.1z"/>
					<path style="fill:#27304A;" d="M85.102-373.22c0.969-0.286,2.04,0.449,2.392,1.641c0.352,1.192-0.149,2.39-1.119,2.676
						c-0.969,0.286-2.04-0.449-2.392-1.641C83.631-371.737,84.132-372.935,85.102-373.22z"/>
					<path style="fill:#27304A;" d="M103.373-373.061c0.121-1.231,1.038-2.149,2.049-2.05c1.011,0.099,1.733,1.177,1.613,2.409
						c-0.121,1.231-1.038,2.149-2.05,2.05C103.974-370.751,103.252-371.829,103.373-373.061z"/>
					<path style="fill:#E06367;" d="M100.56-367.34c-0.64,1.83-1.63,3.52-2.9,4.94c1.18,0.36,2.56-0.17,3.24-1.26
						S101.51-366.29,100.56-367.34z"/>
					<path style="fill:#FFFFFF;" d="M99.9-359.52c-4.43-0.11-8.86-0.66-13.17-1.64c-0.62,2.3,0.23,4.91,2.1,6.45
						c1.87,1.55,4.68,1.96,6.94,1.01C98.03-354.64,99.64-356.89,99.9-359.52z"/>
				</g>
			</g>
			<g>
				<g>
					<path style="fill:#36435E;" d="M124.64-249.83c-23.84-1.54-44.98-2.34-66.12-2.67c-1.05,1.75-1.99,3.53-2.83,5.32
						c-4.41,9.32-6.26,19.57-6,29.81c0.4,15.77,14.51,108.4,11.72,147.5c6.85,1.32,21.5,2.5,28.59,2.5
						c7.96-59.26-1.53-139.57-1.53-139.57c2.89,8.37,11.64,40.31,17.57,67.86c5.01,23.27,10.66,46.21,15.15,69.57
						c5.51,1.67,22.71,1.57,28.73,0C143.95-109.79,127.18-231.2,124.64-249.83z"/>
				</g>
				<g>
					<path style="fill:none;stroke:#4B607D;stroke-linecap:round;stroke-linejoin:round;stroke-miterlimit:10;" d="M113.87-235.48
						c0.67,2.73,2.34,5.21,4.66,6.91c2.31,1.7,5.24,2.6,8.15,2.5"/>
					<path style="fill:none;stroke:#4B607D;stroke-linecap:round;stroke-linejoin:round;stroke-miterlimit:10;" d="M59.77-235.78
						c-0.55,4.61-4.73,8.59-9.52,9.07"/>
					<path style="fill:none;stroke:#4B607D;stroke-linecap:round;stroke-linejoin:round;stroke-miterlimit:10;" d="M83.93-236.76
						c0.24,9.07,1.59,18.1,4.04,26.86"/>
					<path style="fill:none;stroke:#4B607D;stroke-linecap:round;stroke-linejoin:round;stroke-miterlimit:10;" d="M93.25-237.96
						c0,2.84,0.14,5.67,0.39,8.56c0.36,4.23-2.39,8.24-6.66,9.31c-0.38,0.09-0.75,0.18-1.13,0.25"/>
					<path style="fill:none;stroke:#4B607D;stroke-linecap:round;stroke-linejoin:round;stroke-miterlimit:10;" d="M92.46-210.52
						c6.84-3.93,14.9-5.86,22.85-5.45"/>
					<path style="fill:none;stroke:#4B607D;stroke-linecap:round;stroke-linejoin:round;stroke-miterlimit:10;" d="M97.34-207.44
						c5.33-0.86,10.79-1.01,16.16-0.43"/>
					<path style="fill:none;stroke:#4B607D;stroke-linecap:round;stroke-linejoin:round;stroke-miterlimit:10;" d="M85.59-209.17
						c-7.08-2.06-14.69-2.42-21.95-1.06"/>
					<path style="fill:none;stroke:#4B607D;stroke-linecap:round;stroke-linejoin:round;stroke-miterlimit:10;" d="M83.91-206.4
						c-2.98,0.43-5.91,1.13-8.76,2.08"/>
				</g>
			</g>
			<g>
				<g>
					<path style="fill:#DED8CA;" d="M67.59-327.81c-0.61-2.79-1.5-5.52-2.82-8.07c-5.04,0.59-9.97,1.97-14.72,4.21
						c-2.38,1.13-4.25,3.08-5.22,5.46c-3.35,8.21-5.67,16.78-7.02,25.18c-0.49,0.52-0.98,1.04-1.54,1.59
						c-1.51,1.52-2.02,3.72-1.3,5.71l0.01,0.04c-0.86,1.45-1.47,3.03-1.92,5.13c-0.36,1.72-0.38,3.5,0.02,5.21
						c1.01,4.32,3.13,8.45,6.16,12.23c2.13,2.66,5.68,3.91,9.06,3.06c4.13-1.04,7.47-2.99,11.73-5.74
						C63.34-290.46,71.4-310.41,67.59-327.81z"/>
					<path style="fill:#DED8CA;" d="M49.89-236.15l4.72-20.55c-1-3.39-0.74-7.12,0.97-10.13c1.8-23.08,2.31-45.09,2.81-67.09
						c6-2.59,13.15-3.23,19.1-5.47c0.89,6.68,8.03,13.1,14.29,13.1c6.88,0,12.62-6.73,14.69-12.31c4.96,0.52,12.79,1.64,17.8,2.99
						c6.29,1.69,11.22,6.36,13.3,12.32c3.48,9.96,7.3,19.82,11.53,29.59c2.67,0.89,4.47,3.73,4.18,6.45
						c1.08,0.95,2.11,1.94,3.18,3.24c1.01,1.22,1.52,2.77,1.44,4.33c-0.3,5.64-2.11,11.19-5.39,15.83
						c-3.48,1.77-7.49,2.56-11.37,2.49c-2.1-0.03-4.05-1.06-5.28-2.7c-3.26-4.31-6.55-8.63-10.12-12.99
						c-0.03,5.4-0.07,10.81-0.24,16.37c1.39,2.36,1.69,5.29,0.68,8.02c0.62,5.24,1.24,10.49,1.81,16.85
						C102.23-229.54,74.72-229.99,49.89-236.15z"/>
				</g>
				<g>
					<g>
						<path style="fill:none;stroke:#C4B091;stroke-linecap:round;stroke-linejoin:round;stroke-miterlimit:10;" d="M118.01-298.23
							c-8.96,3.59-18.54,5.77-28.22,6.42"/>
						<path style="fill:none;stroke:#C4B091;stroke-linecap:round;stroke-linejoin:round;stroke-miterlimit:10;" d="M119.48-260.49
							c-15.95,12.01-37.19,17.26-57.17,14.12"/>
						<path style="fill:none;stroke:#C4B091;stroke-linecap:round;stroke-linejoin:round;stroke-miterlimit:10;" d="M98.71-260.81
							c-10.78,1.27-21.83,0.32-32.2-2.77"/>
					</g>
					<g>
						<path style="fill:none;stroke:#C4B091;stroke-linecap:round;stroke-linejoin:round;stroke-miterlimit:10;" d="M45.55-318.26
							h-0.01c-0.79,0.1-1.43,0.68-1.6,1.43c-0.52,2.25-1.01,4.54-1.27,7.07c3.96,2.78,8.8,4.36,13.7,4.47"/>
						<path style="fill:none;stroke:#C4B091;stroke-linecap:round;stroke-linejoin:round;stroke-miterlimit:10;" d="M60.51-313.86
							c0.36,0.11,0.83,0.26,1.02,0.52c0.55,0.74-0.43,5-0.7,7.94c0.11,0.06,0.22,0.13,0.34,0.2c0.69,0.42,1.08,1.17,1.06,1.95
							c-0.2,7.6-0.48,15.25-2.47,22.6c-0.51,1.9-1.16,3.81-2.33,5.42c-1.17,1.61-2.95,2.9-4.98,3.13"/>
						<path style="fill:none;stroke:#C4B091;stroke-linecap:round;stroke-linejoin:round;stroke-miterlimit:10;" d="M59.79-280.79
							c0.95,3.29-0.21,7.05-2.86,9.31"/>
						<path style="fill:none;stroke:#C4B091;stroke-linecap:round;stroke-linejoin:round;stroke-miterlimit:10;" d="M42.46-310.09
							c-0.14,0.07-0.27,0.14-0.41,0.22c-0.68,0.38-1.13,1.05-1.26,1.79c-0.82,4.75-2.29,9.4-4.36,13.78"/>
					</g>
				</g>
				<g>
					<g>
						<g>
							<polygon style="fill:#2A80A8;" points="69.74,-344.41 60.97,-338.22 60.47,-340.14 56.07,-357.26 55.17,-369.74 
								65.73,-376.27 65.84,-376.24 67.85,-375.66 							"/>
							<polygon style="fill:#45AAC0;" points="69.74,-344.41 60.97,-338.22 60.47,-340.14 67.06,-344.53 65.84,-376.24 
								67.85,-375.66 							"/>
						</g>
						<g>
							<path style="fill:#FCA492;" d="M49.31-328.89c0,0-0.78-15.97-0.27-18.84c0.51-2.87,6.23-11.19,7.85-12.75
								c1.48-1.43,6.12-2.06,8.38-2.46c0.39-0.07,0.77-0.09,1.17-0.06c1.99,0.15,3.96,0.5,5.87,1.06c0.4,0.12,0.8,0.24,1.13,0.49
								c0.33,0.25,0.56,0.64,0.51,1.04c-0.09,0.64-0.82,0.97-1.47,1.15c-1.55,0.42-3.17,0.58-4.82,0.62
								c0.92,0.27,1.8,0.67,2.63,1.25c0.46,0.32,0.85,0.76,1.09,1.26c0.53,1.08,0.98,2.19,1.36,3.33c0.16,0.48,0.3,1,0.12,1.47
								c-0.3,0.78-1.4,1.01-2.2,0.71c-0.8-0.3-1.39-0.96-1.96-1.58c-0.97-1.03-2.21-2.08-3.67-1.8c-1.42,0.98-2.55,2.34-3.23,3.9
								c1.79-0.73,3.75-1.07,5.84-0.91c0.78,0.06,1.54,0.33,2.12,0.85c0.91,0.82,1.59,1.88,2.04,3c0.59,1.49,0.8,3.1,0.82,4.69
								c0.02,1.54-0.24,3.28-1.52,4.19c-0.6,0.43-1.48,0.59-2.07,0.16c-0.3-0.22-0.48-0.55-0.61-0.89c-0.36-0.91-0.44-1.9-0.65-2.86
								c-0.2-0.96-0.56-1.94-1.33-2.58c-0.77-0.64-2.03-0.81-2.72,0.01c1.09,6.26-0.2,12.88-3.52,18.14
								C56.25-325.27,52.16-325.59,49.31-328.89z"/>
							<path style="fill:#FCA492;" d="M50.34-350.1c2.26-6.82,6.19-13.02,11.04-18.33c0.21-0.24,0.44-0.48,0.74-0.59
								c0.75-0.27,1.53,0.41,1.84,1.14c0.63,1.49,0.14,3.22-0.6,4.66c-0.75,1.44-1.75,2.76-2.24,4.3"/>
							<path style="fill:none;stroke:#C2444C;stroke-linecap:round;stroke-linejoin:round;stroke-miterlimit:10;" d="M52.98-349.1
								c1.6-2.87,3.62-5.51,6.19-7.84c0.79-0.71,1.77-1.2,2.82-1.41c1.75-0.36,3.56-0.44,5.33-0.22"/>
							<path style="fill:none;stroke:#C2444C;stroke-linecap:round;stroke-linejoin:round;stroke-miterlimit:10;" d="M52.11-353.46
								c1.15-2.3,2.57-4.47,4.22-6.53c0.62-0.77,1.48-1.35,2.44-1.65c1.24-0.39,2.52-0.69,3.7-0.8"/>
						</g>
					</g>
					<path style="fill:#FCA492;" d="M49.56-331.85l-3.42,13.67c0,0,6.73,6.05,13.93,4.35l0.71-14.54L49.56-331.85z"/>
				</g>
				<g>
					<g>
						<path style="fill:#465E8F;" d="M128.66-254.79c-2.68-7.55-5.17-15.83-8.03-22.07c1.26-0.78,2.53-1.56,4.33-2.16
							C128.19-271.97,130.88-263.14,128.66-254.79z"/>
						<path style="fill:#6F8EB3;" d="M120.69-273.94c-10.13-19.7-12-43.22-4.88-64.03c4.42-2.03,10.31-0.31,13.8,4.07
							c-4.66,18.5-5.36,37.92-2.13,56.34c-0.27,1.38-1.17,2.63-2.41,3.35C123.83-273.48,122.27-273.29,120.69-273.94z"/>
					</g>
					<g>
						<g>
							<g>
								<path style="fill:#FCA492;" d="M130.86-297.41c1.01-1.73,1.34-2.72,1.63-4.43c0.15-0.89,0.06-1.79-0.14-2.67
									c-0.33-1.43-0.19-3.53-0.37-4.66c-0.23-1.44-0.42-2.92-1.12-4.21c-0.69-1.29-2.54-3.62-4.37-3.69
									c-0.29,1.33-0.65,3.19-0.9,4.94c-3.82-2.31-7.86-4.27-12.06-5.84c-0.68-0.26-1.43-0.37-2.15-0.24
									c-2.2,0.42-2.16,2.56-1.17,3.78c0.71,0.88,1.79,1.39,2.83,1.88c-0.7-0.72-1.43-1.47-2.35-1.89
									c-0.93-0.42-2.12-0.46-2.91,0.17c-1.06,0.85-0.93,2.55-0.1,3.61s2.15,1.64,3.55,2.6c-0.58-0.74-1.19-1.5-2.04-1.93
									c-0.85-0.43-2.01-0.45-2.68,0.22c-0.57,0.57-0.62,1.48-0.35,2.22c0.28,0.74,0.83,1.35,1.38,1.94
									c0.55,0.58,1.12,1.17,1.68,2.06c-0.39-0.45-0.5-1.06-0.72-1.61c-0.22-0.55-0.62-1.12-1.23-1.18
									c-0.65-0.07-1.23,0.49-1.37,1.11c-0.14,0.62,0.04,1.25,0.24,1.85c0.25,0.75,0.54,1.5,0.89,2.26
									c1.05,2.26,2.85,4.12,5.09,5.33c2.73,1.46,5.37,3.14,7.95,5.03c1.04,0.76,2.43,0.94,3.62,0.41
									C126.7-291.7,129.02-294.26,130.86-297.41z"/>
								<g>
									<path style="fill:none;stroke:#C2444C;stroke-linecap:round;stroke-linejoin:round;stroke-miterlimit:10;" d="
										M110.6-314.28c1,0.56,2,1.12,3,1.7c1.18,0.69,2.04,1.81,2.35,3.11l0,0"/>
									<path style="fill:none;stroke:#C2444C;stroke-linecap:round;stroke-linejoin:round;stroke-miterlimit:10;" d="
										M108.26-309.93c1.34,1.17,2.84,2.17,4.45,2.95"/>
									<path style="fill:none;stroke:#C2444C;stroke-linecap:round;stroke-linejoin:round;stroke-miterlimit:10;" d="
										M107.23-306.16c0.69,1.59,1.92,2.96,3.45,3.85"/>
								</g>
							</g>
							<path style="fill:#FCA492;" d="M130.41-300.4l5.98,7.43c0,0-3.58,8.31-11.31,9.96l-4.15-8.24L130.41-300.4z"/>
						</g>
						<path style="fill:#DED8CA;" d="M153.27-264.96c-0.79,2.48-7.94,4.28-12.01,3.58c-3.3-0.57-6.2-2.51-8.46-4.9
							c-2.25-2.39-3.93-5.22-5.59-8.02c-0.22-0.46-0.19-1.34-0.17-2.22c-1.25-2.47-2.37-5.3-3.2-8.21
							c5.54-0.42,9.88-4.59,12.22-9.02c3.04,0.85,5.41,2.94,6.78,5.46c1.33,0.1,2.66,0.2,4.93,1.02
							C152.55-281.92,155.02-275.37,153.27-264.96z"/>
						<g>
							<path style="fill:none;stroke:#C4B091;stroke-linecap:round;stroke-linejoin:round;stroke-miterlimit:10;" d="M136.32-294.04
								c2.84,1.88,4.97,4.58,7.01,7.19c-0.22,3.22-1.95,6.32-4.63,8.27c-2.68,1.94-6.25,2.7-9.52,2.01"/>
							<path style="fill:none;stroke:#C4B091;stroke-linecap:round;stroke-linejoin:round;stroke-miterlimit:10;" d="M142.59-287.86
								c0.8-0.21,1.59-0.41,2.53-0.4c2.36,0.48,4.69,1.16,6.93,2.02"/>
							<path style="fill:none;stroke:#C4B091;stroke-linecap:round;stroke-linejoin:round;stroke-miterlimit:10;" d="M148.88-291.57
								c-0.74,1.33-1.84,2.47-3.16,3.28"/>
						</g>
					</g>
				</g>
			</g>
		</g>
	</g>
</g>
</svg>