<?xml version="1.0" encoding="utf-8"?>
<!-- Generator: Adobe Illustrator 27.5.0, SVG Export Plug-In . SVG Version: 6.00 Build 0)  -->
<svg version="1.1" xmlns="http://www.w3.org/2000/svg" xmlns:xlink="http://www.w3.org/1999/xlink" x="0px" y="0px"
	 viewBox="140 -419 169 369" style="enable-background:new 0 -500 500 500;" xml:space="preserve">
<g id="OBJECTS">
	<g>
		<g>
			<g>
				<path style="fill:#ED4C51;" d="M309.23-55.17c-0.08,1.15-0.34,2.44-0.83,3.89c-8.53,1.53-27.87,1.2-36.56-0.03
					c-1.65-0.23-2.9-1.59-2.74-3.25c0.07-0.7,0.13-1.36,0.21-1.99c0.71-6.38,1.6-9.8,1.97-16.67c8.37-1.15,16.08,0.63,22.88,0.2
					C295-65.25,309.89-65.63,309.23-55.17z"/>
				<path style="fill:#FFE3E0;" d="M309.23-55.17c-0.08,1.15-0.34,2.44-0.83,3.89c-8.53,1.53-27.87,1.2-36.56-0.03
					c-1.65-0.23-2.9-1.59-2.74-3.25c0.07-0.7,0.13-1.36,0.21-1.99C282.43-53.96,295.96-53.5,309.23-55.17z"/>
			</g>
			<g>
				<path style="fill:#ED4C51;" d="M209.12-55.17c0.08,1.15,0.34,2.44,0.83,3.89c8.53,1.53,27.87,1.2,36.56-0.03
					c1.65-0.23,2.9-1.59,2.74-3.25c-0.07-0.7-0.13-1.36-0.21-1.99c-0.71-6.38-1.6-9.8-1.97-16.67c-8.37-1.15-16.08,0.63-22.88,0.2
					C223.35-65.25,208.45-65.63,209.12-55.17z"/>
				<path style="fill:#FFE3E0;" d="M209.12-55.17c0.08,1.15,0.34,2.44,0.83,3.89c8.53,1.53,27.87,1.2,36.56-0.03
					c1.65-0.23,2.9-1.59,2.74-3.25c-0.07-0.7-0.13-1.36-0.21-1.99C235.91-53.96,222.39-53.5,209.12-55.17z"/>
			</g>
			<path style="fill:#3D252C;" d="M222.35-378.31c-2.59-1.62-5.3-3.28-8.36-3.6c-3.06-0.32-6.57,1.13-7.44,3.98
				c-0.87,2.85,2.43,6.29,5.19,4.95c-4.9-2.88-12.34,0.62-13.01,6.1c-0.67,5.49,5.73,10.55,11.18,8.85
				c-2.45-1.23-5.78,0.52-6.44,3.11c-0.66,2.59,1.05,5.4,3.54,6.54c2.5,1.14,5.53,0.8,7.98-0.43c-1.95-1.6-5.23,0.64-5.2,3.12
				c0.03,2.47,2.1,4.48,4.26,5.81c2.63,1.63,5.91,2.73,8.86,1.76c2.96-0.97,4.93-4.72,3.1-7.16c-2.18,3.1,0.35,8.08,4.22,8.33
				c3.87,0.25,7.06-4.37,5.33-7.72c-1.66,3.33,0.95,7.73,4.69,8.53c3.75,0.81,7.76-1.6,9.23-5.02c1.47-3.42,0.65-7.49-1.52-10.54
				c-0.41,2.5,2.89,4.47,5.37,3.62c2.48-0.85,3.84-3.52,4-6.05c0.3-4.92-3.45-9.79-8.42-10.94c-0.41,1.44,2.43,1.8,3.06,0.44
				c0.63-1.36-0.24-2.9-1.08-4.15c-1.59-2.36-3.27-4.81-5.83-6.16s-6.25-1.14-7.86,1.2c3.17,0.95,6.62-2.4,5.94-5.54
				c-0.68-3.13-4.7-4.97-7.82-3.85c-3.11,1.12-4.92,4.63-4.41,7.79c2.81-2.15,3.09-6.73,0.56-9.18c-2.53-2.46-7.28-2.23-9.54,0.46
				c-2.26,2.69-1.51,7.21,1.5,9.09C223.63-376.63,223.23-378.33,222.35-378.31z"/>
			<path style="fill:#C46C62;" d="M303.69-279.86c4.25-9.68,4.12-20.52-1.59-33.17c-4.11,2.57-9.61,4.84-14.12,6.68
				C291.64-297.3,295.84-288.2,303.69-279.86z"/>
			<path style="fill:#C46C62;" d="M198.67-276.98c1.52,2.24,2.78,4.21,4.43,6.51c4.82-1.21,8.51-8.12,10.96-13.41
				s4.4-10.87,7.83-15.63c-7.9-1.99-15.44-5.3-22.18-9.73C196.3-298.67,192.65-285.89,198.67-276.98z"/>
			<g>
				<path style="fill:#FED885;" d="M207.82-254.19c-7.81,28.33,10.78,139.02,14.08,182.15c8.48,1.72,18.84,2.67,29.75,1.55
					c-0.62-8.05-5.8-133.53-6.42-141.58c2.95,8.94,19.73,121.6,22.92,140.93c8.45,1.04,20.49,1.53,29.18-2.45
					c-4.76-23.73-9.5-157.07-15.24-177.25C257.65-249.3,232.96-251.44,207.82-254.19z"/>
				<g>
					<path style="fill:none;stroke:#E8BA6F;stroke-linecap:round;stroke-linejoin:round;stroke-miterlimit:10;" d="M240.26-243.6
						c-0.35,8.19,0.83,16.43,3.45,24.23"/>
					<path style="fill:none;stroke:#E8BA6F;stroke-linecap:round;stroke-linejoin:round;stroke-miterlimit:10;" d="M247.28-245.18
						c-0.26,4.56,0.07,9.14,1.03,13.65c0.58,2.72-0.69,5.5-3.16,6.93l-2.44,1.41"/>
					<path style="fill:none;stroke:#E8BA6F;stroke-linecap:round;stroke-linejoin:round;stroke-miterlimit:10;" d="M271.46-244.33
						c-0.1,3.02,1.29,6.06,3.67,8.03s5.71,2.83,8.8,2.27"/>
					<path style="fill:none;stroke:#E8BA6F;stroke-linecap:round;stroke-linejoin:round;stroke-miterlimit:10;" d="M213.82-243.75
						c-0.19,2.47-0.4,4.99-1.49,7.23c-1.09,2.24-3.26,4.16-5.83,4.27"/>
					<path style="fill:none;stroke:#E8BA6F;stroke-linecap:round;stroke-linejoin:round;stroke-miterlimit:10;" d="M249.88-218.77
						c7.95-2.38,16.28-3.57,24.6-3.53"/>
					<path style="fill:none;stroke:#E8BA6F;stroke-linecap:round;stroke-linejoin:round;stroke-miterlimit:10;" d="M253.41-215.24
						c4.76,0.13,9.52,0.26,14.27,0.39"/>
					<path style="fill:none;stroke:#E8BA6F;stroke-linecap:round;stroke-linejoin:round;stroke-miterlimit:10;" d="M239.67-218.18
						c-5.94-2.38-12.5-3.28-18.89-2.59"/>
					<path style="fill:none;stroke:#E8BA6F;stroke-linecap:round;stroke-linejoin:round;stroke-miterlimit:10;" d="M239.46-214.17
						c-3.5-0.06-7.01,0.47-10.33,1.54"/>
				</g>
			</g>
			<g>
				<path style="fill:#FFFFFF;" d="M286.48-243.84c-4.15-17.41-4.86-35.57-2.09-53.23c8.37-3.56,16.92-7.77,24.86-12.87
					c-4.78-9.29-10.44-18.2-16.87-26.57c-3.87-5.04-9.46-8.65-15.77-10.17c-10.36-2.5-20.45-3.58-30.55-3.69
					c-9.17,2.22-17.49,4.92-26.06,8.12c-5.33,1.99-9.74,5.76-12.48,10.6c-4.52,7.99-8.88,16.29-13.5,25.44
					c5.66,5.2,12.53,9.17,20.24,11.53c-0.52,6.36-1.05,12.73-1.74,19.23c-2.86,2.63-3.52,7.21-1.85,10.96
					c-3.08,7.58-5.18,15.53-6.96,24.73C230.08-231.52,259.29-232.03,286.48-243.84z"/>
				<g>
					<path style="fill:none;stroke:#BFD1DB;stroke-linecap:round;stroke-linejoin:round;stroke-miterlimit:10;" d="M212.98-328.15
						c-0.2,10.81,0.27,21.64,1.41,32.4"/>
					<path style="fill:none;stroke:#BFD1DB;stroke-linecap:round;stroke-linejoin:round;stroke-miterlimit:10;" d="M207.8-315.67
						c0.58,5.37,2.7,10.57,6.05,14.9"/>
					<path style="fill:none;stroke:#BFD1DB;stroke-linecap:round;stroke-linejoin:round;stroke-miterlimit:10;" d="M218.13-274.96
						c15.94,0.66,32.05-2.9,46.1-10.2"/>
					<path style="fill:none;stroke:#BFD1DB;stroke-linecap:round;stroke-linejoin:round;stroke-miterlimit:10;" d="M271.7-262.99
						c-14.78,5.32-31.34,5.95-46.51,1.75"/>
				</g>
			</g>
			<g>
				<path style="fill:#C46C62;" d="M266.96-348.56c-2.65,7.2-7.99,13.37-14.72,17.31c-3.52,2.06-7.93,2.08-11.41-0.04
					c-5.39-3.29-9.93-7.71-12.83-13.82c2.51-0.93,5.53-2.01,7.7-3.14l0.96-4.1l1.01-4.27c4.32,0.1,8.65-0.13,12.93-0.7
					c2.12-0.28,4.22-0.63,6.31-1.07c0.07,0.83,0.23,1.61,0.47,2.36c1.3,4.15,5,6.99,9.1,7.43h0.01
					C266.65-348.58,266.8-348.57,266.96-348.56z"/>
				<path style="fill:#4F2739;" d="M266.48-348.6c-4.04,4.48-10.3,8.55-16.41,7.55c-5.66-0.91-10.87-6.36-13.41-11.3l1.01-4.27
					c4.32,0.1,8.65-0.13,12.93-0.7c2.28,0.31,4.55,0.74,6.79,1.29C258.69-351.87,262.39-349.03,266.48-348.6z"/>
			</g>
			<g>
				<g>
					<path style="fill:#C46C62;" d="M295.94-272.98c-2.62-0.27-5.21-0.89-7.67-1.82c-3.39-1.29-5.84-4.17-6.66-7.59
						c-3.93-16.42-7.65-31.82-11.36-47.22c5.65,0.07,10.04-0.57,14.43-1.22c1.86,11.8,7.87,23.17,17.39,32.27
						c2.17,2.08,3.42,4.9,3.55,7.85c0.22,5.12-1.16,10.37-4.01,15C300.43-273.83,298.21-272.75,295.94-272.98z"/>
					<path style="fill:none;stroke:#A8404C;stroke-linecap:round;stroke-linejoin:round;stroke-miterlimit:10;" d="M298.27-302.79
						c1.3,1.87,2.81,3.59,4.51,5.14"/>
				</g>
				<g>
					<path style="fill:#C46C62;" d="M277.94-325.03c-1.61,0.68-3.51,0.71-5.15,0.07c-1.64-0.64-2.98-1.92-3.66-3.49
						c-0.83-1.91-0.65-4.08-0.24-6.11c1.03-5.08,3.46-9.88,7.06-13.8c2.09,0.57,4.18,1.14,6.27,1.71
						C281.73-339.87,280.41-333.16,277.94-325.03z"/>
					<path style="fill:#B55551;" d="M269.69-371.72c0.43-1.47,0.89-2.99,1.94-4.13c1.05-1.14,2.89-1.76,4.26-1
						c1.3,0.72,1.71,2.33,1.85,3.77c0.26,2.71,0.01,5.53-1.28,7.94c-1.29,2.42-3.74,4.35-6.55,4.6
						C269.79-364.05,268.52-367.72,269.69-371.72z"/>
					<path style="fill:#C46C62;" d="M283.94-357.48c-0.95-4.14-1.9-8.28-2.85-12.42c-0.06-0.26-0.12-0.53-0.29-0.74
						c-0.53-0.7-1.73-0.41-2.35,0.22c-1,1.02-1.18,2.54-1.17,3.94c0.01,3.43,0.79,6.81,1.57,10.15
						C280.5-356.88,282.14-357.43,283.94-357.48z"/>
					<g>
						<polygon style="fill:#FED885;" points="279.65,-372.2 276.06,-372.46 274.59,-369.06 272.63,-340.63 277.29,-340.59 						"/>
						<polygon style="fill:#373E57;" points="275.74,-370.39 274.91,-368.34 273.64,-344.66 274.43,-344.69 						"/>
					</g>
					<path style="fill:#C46C62;" d="M284.92-326.43c2.03-5.51,3.56-11.19,4.67-16.7c0.17-0.83,0.19-1.69,0.03-2.52
						c-0.85-4.41-2.55-8.68-4.92-12.57c-0.68-1.12-1.93-1.83-3.28-1.86c-2.95-0.06-5.93,0.21-8.91,0.89
						c-1.54,0.35-2.65,1.66-2.71,3.18c-0.06,1.65,0.13,3.32,0.6,4.96c-0.08,0.23-0.15,0.46-0.23,0.69c-0.98,0.88-1.3,2.26-0.77,3.43
						c0.16,0.36,0.34,0.71,0.52,1.07l-0.03,0.05c-0.51,0.81-0.56,1.81-0.14,2.66c0.85,1.77,1.9,3.46,3.18,5.09
						c0.39,0.5,1.13,0.68,1.69,0.35c0.37-0.22,0.67-0.54,0.87-0.91c0.38-0.73,0.39-1.59,0.19-2.38c-0.2-0.79-0.59-1.52-0.91-2.31
						c0.71-0.93,1.52-1.79,2.81-2.57c0.88,0.81,1.76,1.62,2.89,3.06c-2.76,2.07-4.74,5.09-5.47,8.38c-0.74,3.29-0.23,6.83,1.64,9.7
						C279.35-324.03,282.39-324.62,284.92-326.43z"/>
					<g>
						<path style="fill:none;stroke:#A8404C;stroke-linecap:round;stroke-linejoin:round;stroke-miterlimit:10;" d="M270.53-350.66
							c1.48-1.7,3.15-3.26,5.09-4.68c0.95-0.7,2.24-0.86,3.31-0.34c1.71,0.83,3.25,1.98,4.53,3.36"/>
						<path style="fill:none;stroke:#A8404C;stroke-linecap:round;stroke-linejoin:round;stroke-miterlimit:10;" d="M270.18-346.05
							c1.53-1.64,3.26-3.12,5.16-4.42c0.75-0.52,1.73-0.63,2.59-0.33c1.74,0.59,3.37,1.48,4.8,2.61"/>
						<path style="fill:none;stroke:#A8404C;stroke-linecap:round;stroke-linejoin:round;stroke-miterlimit:10;" d="M277.67-345.65
							c0.96,0.44,1.86,0.99,3.06,1.97c-1.59,2.13-3.2,4.27-4.3,6.67c-1.1,2.4-1.67,5.1-1.09,7.66"/>
						<path style="fill:none;stroke:#A8404C;stroke-linecap:round;stroke-linejoin:round;stroke-miterlimit:10;" d="M271.07-340.59
							c0.48,0.95,1.03,1.87,1.69,2.79c0.45,0.63,1.34,0.85,1.99,0.42c0.27-0.18,0.5-0.42,0.67-0.69c0.43-0.69,0.52-1.53,0.48-2.33"
							/>
						<path style="fill:none;stroke:#A8404C;stroke-linecap:round;stroke-linejoin:round;stroke-miterlimit:10;" d="M283.17-359.41
							c-1.21-0.5-2.55-0.7-3.87-0.58"/>
					</g>
				</g>
			</g>
			<g>
				<g>
					<path style="fill:#C46C62;" d="M142.15-342.8c-0.45,0.07-0.92,0.15-1.32,0.37c-0.4,0.22-0.72,0.63-0.71,1.07
						c0.02,0.7,0.8,1.13,1.46,1.43c2.82,1.29,5.45,2.96,7.79,4.96c-0.02,0.46,0.21,1.13,0.61,1.62c0.4,0.49,0.95,0.84,1.48,1.2
						c3.41,2.25,6.51,4.93,9.22,7.95c0.47,0.52,1.02,0.97,1.65,1.3c4.98,2.54,10.48,4.35,16.13,5.16c1.49,0.21,3.01-0.14,4.2-1.02
						c1.6-1.19,2.8-2.76,3.47-4.53c0.45-0.2,0.95-0.5,1.45-0.86c1.21-0.89,1.89-2.3,1.88-3.77c-0.02-3.36-0.68-6.52-1.92-9.29
						c-0.5-1.12-1.36-2.06-2.44-2.69c-4.05-2.36-7.66-5.41-10.64-9.1c-0.39-0.48-1.11-0.54-1.58-0.13
						c-0.51,0.44-0.89,1.03-0.99,1.64c-0.16,0.97,0.12,1.96,0.59,2.83s1.65,2.23,2.42,3.02c0.95,0.97,1.2,1.73,1,3.37
						c-3.65-0.05-7.29-0.55-11.2-1.31C157.55-343.2,149.21-343.89,142.15-342.8z"/>
					<path style="fill:none;stroke:#A8404C;stroke-linecap:round;stroke-linejoin:round;stroke-miterlimit:10;" d="M149.71-335.12
						c0.52-0.7,1.54-0.92,2.42-0.77c0.88,0.15,1.66,0.62,2.42,1.08c2.81,1.7,5.63,3.39,9.06,5.59c6-1.52,12.7-0.24,17.64,3.37"/>
					<path style="fill:none;stroke:#A8404C;stroke-linecap:round;stroke-linejoin:round;stroke-miterlimit:10;" d="M146.77-337.26
						c-0.57-0.38-0.67-1.22-0.32-1.8c0.35-0.58,1.05-0.89,1.74-0.96c0.69-0.07,1.38,0.08,2.05,0.26c4.8,1.27,9.07,3.9,13.44,6.47
						c0.76-0.09,1.49-0.34,2.14-0.73"/>
					<path style="fill:none;stroke:#A8404C;stroke-linecap:round;stroke-linejoin:round;stroke-miterlimit:10;" d="M143.92-339
						c-0.63-0.51-0.54-1.55,0.02-2.14c0.55-0.59,1.41-0.82,2.23-0.9c1.77-0.17,3.54,0.21,5.26,0.64c4.58,1.15,9.06,2.7,13.36,4.63"
						/>
					<path style="fill:none;stroke:#A8404C;stroke-linecap:round;stroke-linejoin:round;stroke-miterlimit:10;" d="M176.07-336.93
						c-0.2,1.24-0.01,2.53,0.54,3.66"/>
				</g>
				<path style="fill:#C46C62;" d="M186.82-278.61c-2.63-14.1-5.76-28.12-9.28-42.42c3.44-3,6.89-6,10.83-9.43
					c2,6.94,4.01,13.91,7.14,20.44c2.51,5.24,5.8,10.23,10.06,14.43c2.42,2.38,3.96,5.51,4.02,8.84c0.08,4.41-0.8,8.86-2.6,13.02
					c-1.11,2.57-4.02,3.97-6.81,3.27c-2.33-0.59-4.61-1.34-6.82-2.24c-1.55-0.64-3.03-1.46-4.3-2.53
					C188.04-276.08,187.1-277.13,186.82-278.61z"/>
				<path style="fill:none;stroke:#A8404C;stroke-linecap:round;stroke-linejoin:round;stroke-miterlimit:10;" d="M201.39-299.97
					c1.98,1.98,3.99,3.98,5.45,6.35c1.46,2.37,2.35,5.16,1.91,7.88"/>
			</g>
			<g>
				<path style="fill:#C46C62;" d="M226.85-367.84c-6.99-7.19-10.28-17.68-8.16-27.32c2.12-9.64,9.76-18.07,19.52-21
					c9.76-2.94,21.25-0.04,27.96,7.39c4.5,4.98,6.75,11.58,7.27,18.17c0.52,6.58-0.57,13.19-1.87,19.61
					c2.43,5.41,0.6,11.91-3.14,16.57c-2.86,3.57-5.54,6.05-9.91,8.64c-5.8,3.43-13.24,0.02-21.22-5.58
					C231.93-355.14,226.3-361.39,226.85-367.84z"/>
				<path style="fill:#3D252C;" d="M220.7-369.7c-3.46-8.71-6.26-17.23-4.77-26.01c1.72-10.09,9.54-18.99,19.58-22.28
					c10.04-3.29,21.88-0.84,29.63,6.14c7.75,6.98,11.08,18.2,8.33,28.07c-0.74-4.48-1.47-8.95-2.5-13.06
					c-5.34,0.38-10.68,0.76-16.58,1.22c-7.28,0.07-15.78-0.42-22.85-1.57c-1.41,4.64-1.69,9.52-0.86,14.89
					c-2.03,5.27-3.82,10.78-5.35,16.21C223.81-367.13,221.65-367.32,220.7-369.7z"/>
				<path style="fill:#C46C62;" d="M228.1-370.13c-1.77-1.5-6.07-5.6-10.37-2.42c-1.24,0.92-1.76,2.69-1.64,4.3
					c0.12,1.62,0.8,3.12,1.64,4.47c1.25,2,2.91,3.76,4.96,4.69c2.06,0.93,4.55,0.92,6.43-0.38"/>
				<g>
					<path style="fill:#3D252C;" d="M235.5-379.2c1.19-2.67,3.87-4.78,6.88-5c3.01-0.22,6.15,1.71,6.87,4.54
						C245.01-381.86,239.4-381.3,235.5-379.2z"/>
					<path style="fill:#3D252C;" d="M261.06-379.53c0.85-1.69,2.01-3.28,3.64-4.3c1.63-1.02,3.78-1.39,5.56-0.62
						c1.77,0.77,2.94,2.84,2.33,4.62C268.84-381.68,264.05-381.31,261.06-379.53z"/>
					<ellipse style="fill:#27304A;" cx="246.28" cy="-369.88" rx="1.93" ry="2.59"/>
					<ellipse style="fill:#27304A;" cx="266.17" cy="-369.88" rx="1.93" ry="2.59"/>
					<path style="fill:#A8404C;" d="M260.72-366.07c-0.83,1.87-2.37,3.44-4.26,4.34c1.13,0.83,2.88,0.74,3.91-0.21
						C261.39-362.88,261.57-364.56,260.72-366.07z"/>
					<path style="fill:#FFFFFF;" d="M260.1-357.68c-5.47,0.27-11.02-1.12-15.28-3.85c0.52,3.46,3.11,6.65,6.6,7.6
						C254.91-352.98,259.08-354.63,260.1-357.68z"/>
				</g>
			</g>
		</g>
	</g>
</g>
</svg>
