<?xml version="1.0" encoding="utf-8"?>
<!-- Cropped and centered character SVG -->
<svg version="1.1" xmlns="http://www.w3.org/2000/svg" xmlns:xlink="http://www.w3.org/1999/xlink" x="0px" y="0px"
	 viewBox="340 -415 132 365" style="enable-background:new 0 -500 500 500;" xml:space="preserve">
<g id="OBJECTS">
    <g>
        <g>
			<g>
				<g>
					<path style="fill:#3A4666;" d="M445.41-55.17c-0.08,1.15-0.34,2.44-0.83,3.89c-8.53,1.53-27.87,1.2-36.56-0.03
						c-1.65-0.23-2.9-1.59-2.74-3.25c0.07-0.7,0.13-1.36,0.21-1.99c0.71-6.38,1.6-9.8,1.97-16.67c8.37-1.15,16.08,0.63,22.88,0.2
						C431.17-65.25,446.07-65.63,445.41-55.17z"/>
					<path style="fill:#657BA1;" d="M445.41-55.17c-0.08,1.15-0.34,2.44-0.83,3.89c-8.53,1.53-27.87,1.2-36.56-0.03
						c-1.65-0.23-2.9-1.59-2.74-3.25c0.07-0.7,0.13-1.36,0.21-1.99C418.61-53.96,432.14-53.5,445.41-55.17z"/>
				</g>
				<g>
					<path style="fill:#3A4666;" d="M347.04-55.17c0.08,1.15,0.34,2.44,0.83,3.89c8.53,1.53,27.87,1.2,36.56-0.03
						c1.65-0.23,2.9-1.59,2.74-3.25c-0.07-0.7-0.13-1.36-0.21-1.99c-0.71-6.38-1.6-9.8-1.97-16.67c-8.37-1.15-16.08,0.63-22.88,0.2
						C361.28-65.25,346.38-65.63,347.04-55.17z"/>
					<path style="fill:#657BA1;" d="M347.04-55.17c0.08,1.15,0.34,2.44,0.83,3.89c8.53,1.53,27.87,1.2,36.56-0.03
						c1.65-0.23,2.9-1.59,2.74-3.25c-0.07-0.7-0.13-1.36-0.21-1.99C373.84-53.96,360.32-53.5,347.04-55.17z"/>
				</g>
				<path style="fill:#77AEE6;" d="M373.01-251.55l-0.99,11.74l-12.94,169.8l5.32,1.53l23.33-1.53l17.29-139.5l1,139.5l20.49,1.81
					l6.59-1.81c0,0,10.89-152.88,8.61-165.43c-1.27-6.96-4.67-14.19-4.67-14.19L373.01-251.55z"/>
			</g>
			<g>
				<g>
					<path style="fill:none;stroke:#5A8ED6;stroke-linecap:round;stroke-linejoin:round;stroke-miterlimit:10;" d="M404.05-237.5
						c-0.62,7.86-0.15,15.79,1.39,23.53"/>
					<path style="fill:none;stroke:#5A8ED6;stroke-linecap:round;stroke-linejoin:round;stroke-miterlimit:10;" d="M410.27-238.56
						c-0.29,3.52-0.09,7.08,0.42,10.74c0.57,4.04-1.8,7.99-5.81,9.29c-0.07,0.02-0.13,0.04-0.2,0.06"/>
				</g>
				<g>
					<path style="fill:#36435E;" d="M374.88-249.07c-0.25,2.23-0.64,4.45-0.64,7.25c20.26,4.36,43.37,4.63,63.04-0.6
						c-0.45-2.17-1.13-4.26-2-6.21C415.73-248.97,394.78-248.63,374.88-249.07z"/>
					<path style="fill:#77AEE6;" d="M422.39-245.92c0.45,2.89,0.63,5.82,0.53,8.74c1.36-0.44,2.83-0.56,4.25-0.37
						c-0.02-3.13-0.35-6.26-0.98-9.33C424.9-246.26,423.48-245.91,422.39-245.92z"/>
					<path style="fill:#CFEDFF;" d="M398.81-242.89c0.02,1.29,0.04,2.59,0.05,3.91c0.01,1.14,0.92,2.08,2.1,2.2
						c3.65,0.38,7.34,0.42,11,0.13c1.19-0.09,2.12-1.02,2.15-2.17l0.12-4.27c0.03-1.25-1.01-2.28-2.31-2.29
						c-3.88,0-7.67,0.02-10.96,0.22C399.73-245.07,398.79-244.07,398.81-242.89z"/>
					<path style="fill:#77AEE6;" d="M384.64-237.87c0.01-2.99,0.28-5.99,1.11-9.62c1.2,0.2,2.41,0.39,3.61,0.59
						c-0.64,3.05-1.03,6.15-1.17,9.26C387.22-237.8,386.25-237.95,384.64-237.87z"/>
				</g>
			</g>
			<g>
				<path style="fill:#45AAC0;" d="M437.05-246.49c-20.76,4.13-42.46,3.83-63.09-0.88c-2.13-0.69-3.81-1.87-5.15-3.33
					c-0.81-0.88-1-2.15-0.5-3.23c1.3-2.81,2.46-5.28,3.61-7.75c0.03-5.26-0.15-10.51-0.33-15.76c-1.14,2.83-3.58,6.33-6.01,9.84
					c-6.82-3.34-13.3-5.94-20.05-7.24c3.46-10.28,7.41-20.18,11.35-30.07c-0.7-0.88-0.81-2.16-0.36-3.25
					c0.45-1.08,1.44-1.94,2.61-2.26c0.23-1.19,0.5-2.38,0.81-3.57c2.6-10.02,11.36-17.42,21.95-19.03
					c7.38-1.12,14.72-2.46,22.46-3.68c12.13,2.05,24.27,4.11,36.53,6.37c9.1,1.68,15.99,9.13,16.27,18.05c0,0.05,0,0.1,0,0.16
					c3.25,1.21,4.68,5.58,2.67,8.36c2.45,6.91,4.9,13.82,7.78,21.31c-3.82,5.44-9.19,9.87-15.38,12.55
					c-5.21-1.41-9.95-4.39-14.65-8.7c0.3,6.06,0.1,10.97,0.71,16.81c0.56,2.84,0.9,5.3,2.26,7.47c1.06,1.72,1.18,3.88-0.01,5.52
					C439.75-247.7,438.68-246.81,437.05-246.49z"/>
				<g>
					<path style="fill:none;stroke:#28759E;stroke-linecap:round;stroke-linejoin:round;stroke-miterlimit:10;" d="M411.19-318.11
						c-2.64,21.07-2.62,42.44,0.62,63.72c-0.14,3.45-1.43,6.84-3.62,9.57"/>
					<path style="fill:none;stroke:#28759E;stroke-linecap:round;stroke-linejoin:round;stroke-miterlimit:10;" d="M374.93-318.61
						c3.39,15.07,3.02,30.91-1.07,45.82"/>
					<path style="fill:none;stroke:#28759E;stroke-linecap:round;stroke-linejoin:round;stroke-miterlimit:10;" d="M437.29-297.98
						c-0.12,5.88-0.24,11.76-0.37,17.64"/>
					<path style="fill:none;stroke:#28759E;stroke-linecap:round;stroke-linejoin:round;stroke-miterlimit:10;" d="M397.76-256.96
						c9.57,4.48,20.55,6.1,31.07,4.58"/>
				</g>
			</g>
			<g>
				<path style="fill:#59C7D4;" d="M441.77-281.54c0.09,4.88,2.27,9.71,5.98,13.3c1.97,1.9,4.37,3.45,7.01,4.55
					c4.29,1.79,9.33,0.38,11.9-3.38c3.03-4.42,4.76-9.5,4.98-14.62c0.15-3.44-1.79-6.68-4.93-8.33c-4.55-2.4-9.7-3.85-15.26-3.92
					C447.74-290.07,444.38-285.94,441.77-281.54z"/>
				<path style="fill:#FFAD96;" d="M456.61-265.37c-3.23-0.82-6.29-2.23-8.98-4.13c-3.13-2.21-5.08-5.66-5.49-9.37
					c-1.66-15.15-3.53-29.15-5.41-43.14c4.43-0.83,9.32-1.39,13.28-1.74c1.83,12.99,6.7,25.78,16.51,36.56
					c1.32,1.45,2.15,3.27,2.31,5.19c0.44,5.06-1.34,10.34-5.11,14.56C461.98-265.5,459.2-264.71,456.61-265.37z"/>
				<g>
					<g>
						<path style="fill:#FFAD96;" d="M435.27-336.43c-4.27,7.6-2.76,20.04,8.29,20.4c0.49-6.38,1.9-12.86,1.91-19.21
							C442.58-337.48,439.16-337.32,435.27-336.43z"/>
						<path style="fill:#FFAD96;" d="M449.98-343.49c-1.16-5.02-3.09-9.87-5.71-14.35c-0.9,2.28-1.54,4.74-1.2,7.15
							c0.34,2.42,1.81,4.8,4.14,5.75"/>
						<g>
							<polygon style="fill:#FE5C4A;" points="445.24,-346.14 445.62,-360.86 443.41,-362.34 438.49,-357.4 437.47,-338.23 							
								"/>
							<polygon style="fill:#373E57;" points="441.88,-342.62 442.93,-360.86 439.16,-357.24 438.17,-338.93 							"/>
						</g>
						<path style="fill:#FFAD96;" d="M443.61-315.5c-2.88-1.78-4.12-5.37-3.86-8.66s1.76-6.36,3.35-9.28
							c-0.92-1.27-2.21-1.87-3.52-1.87c-1.31-0.01-2.61,0.56-3.45,1.52c-0.52,0.58-0.86,1.29-1.36,1.89
							c-0.49,0.6-1.21,1.12-2.01,1.07c-0.94-0.05-1.68-0.91-1.83-1.81c-0.15-0.9,0.16-1.81,0.57-2.63c0.41-0.82,0.92-1.6,1.2-2.47
							c-1.13-1.59-0.55-4.02,1.11-5.34c0-0.01-0.01-0.01-0.01-0.02c-0.63-1.03-0.62-2.32,0.04-3.33c0.62-0.95,1.26-1.81,1.95-2.62
							c0.74-0.87,1.8-1.44,2.96-1.62c1.52-0.24,3.1-0.36,4.71-0.35c1.36,0.01,2.63,0.67,3.42,1.74c2.45,3.33,4.42,7.14,5.75,11.14
							c0.11,6.81-0.61,13.56-1.81,20.16C449.02-316.27,446.45-315.38,443.61-315.5z"/>
					</g>
					<g>
						<path style="fill:none;stroke:#C2444C;stroke-linecap:round;stroke-linejoin:round;stroke-miterlimit:10;" d="M445.24-350.46
							c1.43,1.55,2.7,3.24,3.78,5.03"/>
						<path style="fill:none;stroke:#C2444C;stroke-linecap:round;stroke-linejoin:round;stroke-miterlimit:10;" d="M448.75-339.91
							c-1.71-1.82-3.5-3.56-5.32-5.24c-0.96-0.89-2.35-1.2-3.63-0.83c-2.11,0.62-4.09,1.67-5.75,3.08"/>
						<path style="fill:none;stroke:#C2444C;stroke-linecap:round;stroke-linejoin:round;stroke-miterlimit:10;" d="M433.01-337.92
							c0.98-1.07,2.09-2.03,3.35-2.85c1.15-0.76,2.63-0.9,3.91-0.37c2.09,0.88,4.09,1.96,5.96,3.23"/>
						<path style="fill:none;stroke:#C2444C;stroke-linecap:round;stroke-linejoin:round;stroke-miterlimit:10;" d="M432.96-330.86
							c1.37-0.07,2.57-0.89,3.59-1.77c1.02-0.88,1.99-1.87,3.33-2.15c1.38,0.64,2.61,1.57,3.45,2.82
							c-2.23,3.82-2.62,8.59-1.02,12.69"/>
					</g>
				</g>
			</g>
			<g>
				<g>
					<path style="fill:#FED885;" d="M404.14-323.09c0.41,3.66,1.98,7.17,4.28,9.97c2.23,0.39,4.09,0.99,6.59,0.31
						c2.2-3.06,3.94-7.07,4.58-10.75C414.59-323.84,409.58-323.79,404.14-323.09z"/>
					<path style="fill:#FED885;" d="M402.97-269.4c1.86-15.41,3.72-30.82,5.74-45.98c2.18-0.53,3.58-0.62,6.19,0.12
						c0.53,13.8,1.58,28.91,5.61,43.07c0.74,2.6,0.45,5.38-0.8,7.78c-1.71,3.3-4,6.31-6.75,8.86
						C408.32-259.24,402.3-263.82,402.97-269.4z"/>
				</g>
				<g>
					<path style="fill:#FCA492;" d="M411.56-319.33c-3.49,0-15.43-14.65-13.02-16.2c0.75-2.38,1.29-4.9,1.68-7.54
						c0.23-1.47,0.42-2.97,0.56-4.51c0.1-0.93,0.19-1.87,0.26-2.82c7.13,1.83,14.56,2.55,22.63,2.28c-0.08,0.68-0.17,1.34-0.24,2.02
						c-0.43,4.05-0.67,8.15-0.65,12.36c0.62,0.64,1.32,1.2,2.1,1.66C425.91-331.45,414.75-319.33,411.56-319.33z"/>
					<path style="fill:#4F2739;" d="M424.89-332.07c-4.87,1.69-10.48,1.49-15.14-0.73c-4.38-2.08-7.81-5.87-9.52-10.26
						c0.23-1.47,0.42-2.97,0.56-4.51c8.14,2.03,15.53,2.27,22.65,1.48c-0.43,4.05-0.67,8.15-0.65,12.36
						C423.41-333.09,424.11-332.52,424.89-332.07z"/>
				</g>
				<path style="fill:#59C7D4;" d="M411.56-319.33c-1.39-1.34-2.91-4.08-2.33-6.41c-4.92-3.34-8.2-7.58-9.89-12.98
					c-3.72-0.98-8.04,1.08-9.52,4.77c-0.34,5.84,3.64,13.29,5.18,18.95c2.25-3.27,7.35-6.44,11.28-8
					C408.27-320.57,409.8-319.54,411.56-319.33z"/>
				<path style="fill:#59C7D4;" d="M430.43-334.13c-1.58-1.93-5.07-2.69-7.61-2.55c-0.72,4.88-4.3,8.37-7.78,11.29
					c-0.83,2.42-1.31,4.26-3.47,6.07c1.87,0.18,4.99-2.73,6.01-3.98c4.42-0.11,11.41,2.42,13.52,6.16
					C433.53-322.76,432.07-332.13,430.43-334.13z"/>
			</g>
			<g>
				<g>
					<ellipse style="fill:#E3F1FA;" cx="411" cy="-300" rx="10.91" ry="1.56"/>
					<path style="fill:#ED4C51;" d="M403.05-276.56L400.09-300c2.12,2.04,19.84,2.16,21.83,0l-3.75,23.38
						C414.69-274.3,407-274.26,403.05-276.56z"/>
				</g>
				<path style="fill:#59C7D4;" d="M373.06-276.76c-4.3-4.34-10.63-6.73-16.84-6.37c-4.32,0.26-8.52,1.84-11.85,4.48
					c-2.87,2.27-4.43,5.77-4.07,9.33c0.27,2.68,1.07,5.53,2.27,8.15c2.64,5.74,9.2,8.6,15.43,6.76c3.18-0.94,6.08-2.53,7.81-4.97
					C369.03-263.89,372-268.58,373.06-276.76z"/>
				<g>
					<path style="fill:#FCA492;" d="M381.13-269.03c4.84,0.14,9.66-2.53,11.95-6.64c1.71-1.03,3.68-1.32,5.55-1.27
						s3.73,0.4,5.6,0.46c0.85,0.02,1.82-0.07,2.33-0.72c0.18-0.23,0.2-0.53,0.14-0.86c-0.18-0.99-1.01-1.75-2.01-2
						c-0.55-0.14-1.19-0.31-1.71-0.5c2.4,0,3.76,0.67,5.31,0.18c0.85-0.27,1.56-1.17,1.26-1.98c-0.23-0.62-0.91-0.95-1.53-1.22
						c-1.63-0.71-3.25-1.42-4.88-2.13c2.07,0.54,4.22,0.75,6.36,0.63c0.67-0.04,1.47-0.19,1.72-0.8c0.35-0.83-0.65-1.58-1.48-1.97
						c-2.83-1.33-5.65-2.67-8.48-4c-2.02-0.47-3.61-0.61-5.2-0.75c0.05-0.04,0.11-0.09,0.16-0.13c1.42-1.14,3.3-1.56,5.11-1.21
						c2.1,0.41,4.22,0.67,6.35,0.8c0.53,0.03,1.08,0.05,1.58-0.12c0.5-0.18,0.94-0.6,0.97-1.11c0.04-0.84-0.93-1.34-1.75-1.62
						c-2.79-0.97-5.59-1.88-8.42-2.74c-1.55-0.47-3.25-0.32-4.66,0.46c-2.95,1.63-5.36,3.45-7.52,5.53
						c-3.55,3.12-6.55,7.13-8.34,11.27C378.09-277.49,378.49-272.88,381.13-269.03z"/>
					<path style="fill:none;stroke:#C2444C;stroke-linecap:round;stroke-linejoin:round;stroke-miterlimit:10;" d="M402.79-285.89
						c-3.33-1.15-6.94-1.53-10.44-1.1"/>
					<path style="fill:none;stroke:#C2444C;stroke-linecap:round;stroke-linejoin:round;stroke-miterlimit:10;" d="M402.55-280.71
						c-3.41-0.62-6.92-0.75-10.38-0.4"/>
					<path style="fill:none;stroke:#C2444C;stroke-linecap:round;stroke-linejoin:round;stroke-miterlimit:10;" d="M395.97-292.69
						c-1.43-0.07-2.86-0.01-4.28,0.18"/>
				</g>
				<path style="fill:#FCA492;" d="M349.24-259.66c-1.32-1.25-2.47-2.67-3.39-4.22c-1.18-1.98-1.16-4.45,0.06-6.4
					c1.99-3.18,4.69-5.88,7.84-7.89c1.88-1.2,4.18-1.62,6.39-1.16c6.74,1.4,14.25-0.23,21.06-2.64c0.52,3.55,1.27,7.67,1.59,11.69
					c-6.61,4.82-13.75,8.97-21.18,12.53C357.49-255.77,352.51-256.56,349.24-259.66z"/>
			</g>
			<g>
				<path style="fill:#FCA492;" d="M413.27-335.04c-1.81,0.1-3.61-0.35-5.15-1.27c-4.06-2.43-8.66-6.04-10.98-10.07
					c-2.79-4.86-5.27-12.9-3.34-18.3c-0.83-7.47-1.94-12.56-1.22-19.84s3.48-14.63,9.02-19.63c7.68-6.94,19.63-8.2,29.66-5.11
					c5.76,1.77,11.27,5.02,14.38,10.01c2.08,3.35,2.96,7.27,3.27,11.17c0.86,10.85-2.62,21.98-9.04,30.27
					C439.03-340.72,420.68-335.43,413.27-335.04z"/>
				<path style="fill:#7B3349;" d="M391.37-366.65c-2.71-8.82-3.31-18.23-1.74-27.3c0.56-3.23,1.42-6.48,3.26-9.23
					c1.84-2.75,4.8-4.97,8.48-5.31c3.97-4.43,10.32-6.18,16.38-6.62c19.79-1.43,29,8.13,32.04,18.51c8.29,5.65-0.84,27-8.71,36.79
					c3.77-10.07,5.01-21.71,3.77-32.01c0.17,4.16-1.64,8.35-4.83,11.16c1.44-3.69,2.17-7.64,2.14-11.59
					c-0.26,5.1-5.08,9.6-10.38,9.68c1.81-2.6,2.98-5.6,3.39-8.71c-1.33,5.39-7.22,9.34-12.93,8.68c2.62-3.21,4.76-6.78,6.35-10.56
					c-4.16,5.75-11.36,9.34-18.64,9.27c1.75-2.62,3.5-5.23,5.25-7.85c-2.88,3.42-7.55,5.36-11.6,4.71c-1.42,3.49-3.85,6.5-5.88,9.7
					c-2.03,3.2-3.73,6.82-3.4,10.56C393.26-367.18,392.2-367.6,391.37-366.65z"/>
				<path style="fill:#FCA492;" d="M395.57-366.48c-0.24-1.69-0.48-3.42-1.24-4.97c-0.76-1.55-2.12-2.91-3.86-3.27
					c-2.12-0.43-4.35,0.78-5.47,2.56s-1.28,4-0.92,6.05c0.93,5.3,5.37,9.86,10.8,11.11C395.04-358.73,396.13-362.5,395.57-366.48z"
					/>
				<g>
					<path style="fill:#7B3349;" d="M401.75-373.49c1.47-2.78,4.77-4.51,7.95-4.17c3.18,0.34,6.02,2.73,6.84,5.75
						C412.44-374.94,406.6-375.53,401.75-373.49z"/>
					<path style="fill:#7B3349;" d="M428.68-369.45c1.49-1.42,3.18-2.65,5.07-3.19c1.89-0.55,4.03-0.35,5.68,0.89
						s2.69,3.62,2.24,5.79C438.96-370.06,433.33-370.52,428.68-369.45z"/>
					<path style="fill:#27304A;" d="M409.21-361.534c0.295-1.32,1.343-2.21,2.34-1.987c0.997,0.223,1.566,1.474,1.271,2.794
						s-1.343,2.21-2.34,1.987C409.483-358.962,408.914-360.214,409.21-361.534z"/>
					<path style="fill:#27304A;" d="M429.335-357.717c0.693-1.175,1.96-1.712,2.831-1.198c0.871,0.513,1.015,1.882,0.322,3.057
						c-0.693,1.175-1.96,1.711-2.831,1.198C428.786-355.173,428.642-356.542,429.335-357.717z"/>
					<path style="fill:#E06367;" d="M423.61-353.36c-1.21,1.34-2.86,2.29-4.65,2.69c0.95,0.81,2.46,0.94,3.55,0.31
						C423.6-350.99,424.18-352.34,423.61-353.36z"/>
					<path style="fill:#FFFFFF;" d="M421.96-347.9c-2.35,0.15-8.83-1.71-11.63-4.25c-1.4,1.3-1.69,3.59-0.92,5.36
						c0.77,1.77,2.42,3.03,4.23,3.61c1.76,0.56,3.74,0.53,5.38-0.33C420.66-344.37,421.9-346.09,421.96-347.9z"/>
				</g>
			</g>
		</g>
	</g>
</g>
</svg>